<mxfile host="app.diagrams.net" modified="2023-11-26T23:25:23.501Z" agent="Mozilla/5.0 (X11; Ubuntu; Linux x86_64; rv:109.0) Gecko/20100101 Firefox/119.0" version="22.1.4" etag="IodG0uY9gVyaBp2mUEgU" type="github">
  <diagram name="Page-1" id="IgUD51FUp8-sjlZksWIq">
    <mxGraphModel>
      <root>
        <mxCell id="0" />
        <mxCell id="1" parent="0" />
      </root>
    </mxGraphModel>
  </diagram>
</mxfile>
